<svg xmlns="http://www.w3.org/2000/svg" xml:space="preserve" viewBox="0 0 512 512"><path d="M10.199 117.607h491.602v169.378H10.199z" style="fill:#f92859"/><path d="M501.801 286.983H10.199V406.2c0 32.835 26.618 59.453 59.453 59.453h372.695c32.835 0 59.453-26.618 59.453-59.453z" style="fill:#fff"/><path d="m150.335 389.439-26.53 26.642-26.531-26.642V252.902h53.061z" style="fill:#f92859"/><path d="M72.298 319.5H175.31v42.153H72.298z" style="fill:#75ebe5"/><path d="m414.726 389.439-26.53 26.642-26.531-26.642V252.902h53.061z" style="fill:#f92859"/><path d="M336.686 319.5h103.012v42.153H336.686z" style="fill:#75ebe5"/><path d="M512 117.608c0-5.632-4.566-10.199-10.199-10.199H366.619V70.633c0-19.015-15.47-34.486-34.486-34.486H179.868c-19.015 0-34.486 15.47-34.486 34.486v36.776H10.199C4.566 107.409 0 111.976 0 117.608v288.593c0 38.406 31.246 69.652 69.652 69.652h372.695c38.406 0 69.652-31.246 69.652-69.652zM165.781 70.633c0-7.767 6.319-14.087 14.087-14.087h152.265c7.768 0 14.087 6.319 14.087 14.087v36.776H165.781zM79.79 242.702c-5.633 0-10.199 4.567-10.199 10.199S74.157 263.1 79.79 263.1h7.284v13.683H20.398V127.807h471.203v148.977h-66.676v-13.683h7.284c5.633 0 10.199-4.567 10.199-10.199s-4.566-10.199-10.199-10.199h-88.028c-5.633 0-10.199 4.567-10.199 10.199s4.566 10.199 10.199 10.199h7.284v13.683H160.534v-13.683h7.284c5.633 0 10.199-4.567 10.199-10.199s-4.566-10.199-10.199-10.199zm292.074 129.155h32.663v13.37l-16.331 16.399-16.332-16.399zm-24.977-20.399v-21.754h82.616v21.754zm24.977-42.152v-46.205h32.663v46.205zm-264.391 62.551h32.663v13.37l-16.332 16.399-16.332-16.399zm-24.976-20.399v-21.754h82.616v21.754zm24.976-42.152v-46.205h32.663v46.205zm334.875 146.149H69.652c-27.158 0-49.254-22.096-49.254-49.254V297.182h66.676v12.124H72.298c-5.633 0-10.199 4.567-10.199 10.199v42.152c0 5.632 4.566 10.199 10.199 10.199h14.777v17.582c0 2.698 1.069 5.286 2.972 7.198l26.531 26.641a10.2 10.2 0 0 0 14.454 0l26.531-26.641a10.2 10.2 0 0 0 2.972-7.198v-17.582h14.777c5.633 0 10.199-4.567 10.199-10.199v-42.152c0-5.632-4.566-10.199-10.199-10.199h-14.777v-12.124h190.931v12.124h-14.778c-5.633 0-10.199 4.567-10.199 10.199v42.152c0 5.632 4.566 10.199 10.199 10.199h14.778v17.582c0 2.698 1.069 5.286 2.972 7.198l26.531 26.641a10.2 10.2 0 0 0 14.454 0l26.53-26.641a10.2 10.2 0 0 0 2.972-7.198v-17.582h14.778c5.633 0 10.199-4.567 10.199-10.199v-42.152c0-5.632-4.566-10.199-10.199-10.199h-14.778v-12.124H491.6V406.2c.002 27.159-22.094 49.255-49.252 49.255" style="fill:#333"/><path d="M236.514 263.101h38.971c5.633 0 10.199-4.567 10.199-10.199s-4.566-10.199-10.199-10.199h-38.971c-5.633 0-10.199 4.567-10.199 10.199s4.566 10.199 10.199 10.199m111.143-103.993h5.1c5.633 0 10.199-4.567 10.199-10.199s-4.566-10.199-10.199-10.199h-5.1c-5.633 0-10.199 4.567-10.199 10.199s4.566 10.199 10.199 10.199m39.777 0h83.633c5.633 0 10.199-4.567 10.199-10.199s-4.566-10.199-10.199-10.199h-83.633c-5.633 0-10.199 4.567-10.199 10.199s4.566 10.199 10.199 10.199" style="fill:#333"/></svg>